<?xml version="1.0" encoding="iso-8859-1"?>
<!-- Generator: Adobe Illustrator 19.0.0, SVG Export Plug-In . SVG Version: 6.00 Build 0)  -->
<svg version="1.1" id="Layer_1" xmlns="http://www.w3.org/2000/svg" xmlns:xlink="http://www.w3.org/1999/xlink" x="0px" y="0px"
	 viewBox="0 0 512 512" style="enable-background:new 0 0 512 512;" xml:space="preserve">
<g>
	<g>
		<polygon points="427.546,36.948 427.546,2.639 411.711,2.639 411.711,36.948 327.258,36.948 327.258,205.856 269.196,205.856 
			269.196,166.268 253.361,166.268 253.361,205.856 195.299,205.856 195.299,110.845 105.567,110.845 105.567,71.258 89.732,71.258 
			89.732,110.845 0,110.845 0,509.361 15.835,509.361 15.835,126.68 179.464,126.68 179.464,509.361 195.299,509.361 
			195.299,221.691 327.258,221.691 327.258,509.361 343.093,509.361 343.093,52.784 496.165,52.784 496.165,509.361 512,509.361 
			512,36.948 		"/>
	</g>
</g>
<g>
	<g>
		<path d="M31.67,147.794v58.062h131.959v-58.062H31.67z M89.732,190.021H47.505v-26.392h42.227V190.021z M147.794,190.021h-42.227
			v-26.392h42.227V190.021z"/>
	</g>
</g>
<g>
	<g>
		<path d="M31.67,232.247v58.062h131.959v-58.062H31.67z M89.732,274.474H47.505v-26.392h42.227V274.474z M147.794,274.474h-42.227
			v-26.392h42.227V274.474z"/>
	</g>
</g>
<g>
	<g>
		<path d="M31.67,316.701v58.062h131.959v-58.062H31.67z M89.732,358.928H47.505v-26.392h42.227V358.928z M147.794,358.928h-42.227
			v-26.392h42.227V358.928z"/>
	</g>
</g>
<g>
	<g>
		<path d="M31.67,401.155v58.062h131.959v-58.062H31.67z M89.732,443.381H47.505V416.99h42.227V443.381z M147.794,443.381h-42.227
			V416.99h42.227V443.381z"/>
	</g>
</g>
<g>
	<g>
		<path d="M358.928,73.897v58.062H480.33V73.897H358.928z M464.495,116.124h-89.732V89.732h89.732V116.124z"/>
	</g>
</g>
<g>
	<g>
		<path d="M358.928,158.351v58.062H480.33v-58.062H358.928z M464.495,200.577h-89.732v-26.392h89.732V200.577z"/>
	</g>
</g>
<g>
	<g>
		<path d="M358.928,242.804v58.062H480.33v-58.062H358.928z M464.495,285.031h-89.732v-26.392h89.732V285.031z"/>
	</g>
</g>
<g>
	<g>
		<path d="M358.928,327.258v58.062H480.33v-58.062H358.928z M464.495,369.485h-89.732v-26.392h89.732V369.485z"/>
	</g>
</g>
<g>
	<g>
		<path d="M358.928,411.711v58.062H480.33v-58.062H358.928z M464.495,453.938h-89.732v-26.392h89.732V453.938z"/>
	</g>
</g>
<g>
	<g>
		<rect x="208.495" y="242.804" width="105.567" height="15.835"/>
	</g>
</g>
<g>
	<g>
		<rect x="208.495" y="285.031" width="105.567" height="15.835"/>
	</g>
</g>
<g>
	<g>
		<rect x="208.495" y="327.258" width="105.567" height="15.835"/>
	</g>
</g>
<g>
	<g>
		<rect x="208.495" y="369.485" width="105.567" height="15.835"/>
	</g>
</g>
<g>
	<g>
		<rect x="208.495" y="411.711" width="105.567" height="15.835"/>
	</g>
</g>
<g>
	<g>
		<rect x="208.495" y="453.938" width="105.567" height="15.835"/>
	</g>
</g>
<g>
</g>
<g>
</g>
<g>
</g>
<g>
</g>
<g>
</g>
<g>
</g>
<g>
</g>
<g>
</g>
<g>
</g>
<g>
</g>
<g>
</g>
<g>
</g>
<g>
</g>
<g>
</g>
<g>
</g>
</svg>
